<mxfile host="app.diagrams.net" agent="Mozilla/5.0 (Windows NT 10.0; Win64; x64) AppleWebKit/537.36 (KHTML, like Gecko) Chrome/129.0.0.0 Safari/537.36" version="24.7.16">
  <diagram name="第 1 页" id="saQ4l6gwrfw8ZkC3gz2z">
    <mxGraphModel dx="794" dy="553" grid="1" gridSize="10" guides="1" tooltips="1" connect="1" arrows="1" fold="1" page="1" pageScale="1" pageWidth="1169" pageHeight="827" math="0" shadow="0">
      <root>
        <mxCell id="0" />
        <mxCell id="1" parent="0" />
        <mxCell id="DB2N2tVpHqEbX4s-BZQU-6" style="edgeStyle=orthogonalEdgeStyle;rounded=0;orthogonalLoop=1;jettySize=auto;html=1;exitX=1;exitY=0.5;exitDx=0;exitDy=0;entryX=0;entryY=0.5;entryDx=0;entryDy=0;" edge="1" parent="1" source="DB2N2tVpHqEbX4s-BZQU-2" target="DB2N2tVpHqEbX4s-BZQU-3">
          <mxGeometry relative="1" as="geometry" />
        </mxCell>
        <mxCell id="DB2N2tVpHqEbX4s-BZQU-9" style="rounded=0;orthogonalLoop=1;jettySize=auto;html=1;exitX=1;exitY=0.5;exitDx=0;exitDy=0;entryX=0;entryY=0.5;entryDx=0;entryDy=0;" edge="1" parent="1" source="DB2N2tVpHqEbX4s-BZQU-2" target="DB2N2tVpHqEbX4s-BZQU-7">
          <mxGeometry relative="1" as="geometry" />
        </mxCell>
        <mxCell id="DB2N2tVpHqEbX4s-BZQU-11" style="rounded=0;orthogonalLoop=1;jettySize=auto;html=1;exitX=1;exitY=0.5;exitDx=0;exitDy=0;entryX=0;entryY=0.5;entryDx=0;entryDy=0;" edge="1" parent="1" source="DB2N2tVpHqEbX4s-BZQU-2" target="DB2N2tVpHqEbX4s-BZQU-8">
          <mxGeometry relative="1" as="geometry" />
        </mxCell>
        <mxCell id="DB2N2tVpHqEbX4s-BZQU-12" style="rounded=0;orthogonalLoop=1;jettySize=auto;html=1;exitX=1;exitY=0.5;exitDx=0;exitDy=0;entryX=0;entryY=0.5;entryDx=0;entryDy=0;" edge="1" parent="1" source="DB2N2tVpHqEbX4s-BZQU-2" target="DB2N2tVpHqEbX4s-BZQU-10">
          <mxGeometry relative="1" as="geometry" />
        </mxCell>
        <mxCell id="DB2N2tVpHqEbX4s-BZQU-2" value="&lt;b&gt;二&lt;/b&gt;" style="text;html=1;align=center;verticalAlign=middle;whiteSpace=wrap;rounded=0;strokeColor=default;" vertex="1" parent="1">
          <mxGeometry x="218" y="200" width="40" height="40" as="geometry" />
        </mxCell>
        <mxCell id="DB2N2tVpHqEbX4s-BZQU-17" style="edgeStyle=orthogonalEdgeStyle;rounded=0;orthogonalLoop=1;jettySize=auto;html=1;exitX=1;exitY=0.5;exitDx=0;exitDy=0;entryX=0;entryY=0.5;entryDx=0;entryDy=0;" edge="1" parent="1" source="DB2N2tVpHqEbX4s-BZQU-3" target="DB2N2tVpHqEbX4s-BZQU-4">
          <mxGeometry relative="1" as="geometry" />
        </mxCell>
        <mxCell id="DB2N2tVpHqEbX4s-BZQU-18" style="rounded=0;orthogonalLoop=1;jettySize=auto;html=1;exitX=1;exitY=0.5;exitDx=0;exitDy=0;entryX=0;entryY=0.5;entryDx=0;entryDy=0;" edge="1" parent="1" source="DB2N2tVpHqEbX4s-BZQU-3" target="DB2N2tVpHqEbX4s-BZQU-13">
          <mxGeometry relative="1" as="geometry" />
        </mxCell>
        <mxCell id="DB2N2tVpHqEbX4s-BZQU-19" style="rounded=0;orthogonalLoop=1;jettySize=auto;html=1;exitX=1;exitY=0.5;exitDx=0;exitDy=0;entryX=0;entryY=0.5;entryDx=0;entryDy=0;" edge="1" parent="1" source="DB2N2tVpHqEbX4s-BZQU-3" target="DB2N2tVpHqEbX4s-BZQU-15">
          <mxGeometry relative="1" as="geometry" />
        </mxCell>
        <mxCell id="DB2N2tVpHqEbX4s-BZQU-3" value="价" style="text;html=1;align=center;verticalAlign=middle;whiteSpace=wrap;rounded=0;strokeColor=default;" vertex="1" parent="1">
          <mxGeometry x="320" y="200" width="40" height="40" as="geometry" />
        </mxCell>
        <mxCell id="DB2N2tVpHqEbX4s-BZQU-29" style="edgeStyle=orthogonalEdgeStyle;rounded=0;orthogonalLoop=1;jettySize=auto;html=1;exitX=1;exitY=0.5;exitDx=0;exitDy=0;entryX=0;entryY=0.5;entryDx=0;entryDy=0;" edge="1" parent="1" source="DB2N2tVpHqEbX4s-BZQU-4" target="DB2N2tVpHqEbX4s-BZQU-5">
          <mxGeometry relative="1" as="geometry" />
        </mxCell>
        <mxCell id="DB2N2tVpHqEbX4s-BZQU-30" style="rounded=0;orthogonalLoop=1;jettySize=auto;html=1;exitX=1;exitY=0.5;exitDx=0;exitDy=0;entryX=0;entryY=0.5;entryDx=0;entryDy=0;" edge="1" parent="1" source="DB2N2tVpHqEbX4s-BZQU-4" target="DB2N2tVpHqEbX4s-BZQU-14">
          <mxGeometry relative="1" as="geometry" />
        </mxCell>
        <mxCell id="DB2N2tVpHqEbX4s-BZQU-31" style="rounded=0;orthogonalLoop=1;jettySize=auto;html=1;exitX=1;exitY=0.5;exitDx=0;exitDy=0;entryX=0;entryY=0.5;entryDx=0;entryDy=0;" edge="1" parent="1" source="DB2N2tVpHqEbX4s-BZQU-4" target="DB2N2tVpHqEbX4s-BZQU-16">
          <mxGeometry relative="1" as="geometry" />
        </mxCell>
        <mxCell id="DB2N2tVpHqEbX4s-BZQU-4" value="&lt;b&gt;双&lt;/b&gt;" style="text;html=1;align=center;verticalAlign=middle;whiteSpace=wrap;rounded=0;strokeColor=default;" vertex="1" parent="1">
          <mxGeometry x="419" y="200" width="40" height="40" as="geometry" />
        </mxCell>
        <mxCell id="DB2N2tVpHqEbX4s-BZQU-5" value="瓜" style="text;html=1;align=center;verticalAlign=middle;whiteSpace=wrap;rounded=0;strokeColor=default;" vertex="1" parent="1">
          <mxGeometry x="519" y="200" width="40" height="40" as="geometry" />
        </mxCell>
        <mxCell id="DB2N2tVpHqEbX4s-BZQU-20" style="rounded=0;orthogonalLoop=1;jettySize=auto;html=1;exitX=1;exitY=0.5;exitDx=0;exitDy=0;entryX=0;entryY=0.5;entryDx=0;entryDy=0;" edge="1" parent="1" source="DB2N2tVpHqEbX4s-BZQU-7" target="DB2N2tVpHqEbX4s-BZQU-4">
          <mxGeometry relative="1" as="geometry" />
        </mxCell>
        <mxCell id="DB2N2tVpHqEbX4s-BZQU-21" style="rounded=0;orthogonalLoop=1;jettySize=auto;html=1;exitX=1;exitY=0.5;exitDx=0;exitDy=0;entryX=0;entryY=0.5;entryDx=0;entryDy=0;" edge="1" parent="1" source="DB2N2tVpHqEbX4s-BZQU-7" target="DB2N2tVpHqEbX4s-BZQU-13">
          <mxGeometry relative="1" as="geometry" />
        </mxCell>
        <mxCell id="DB2N2tVpHqEbX4s-BZQU-22" style="rounded=0;orthogonalLoop=1;jettySize=auto;html=1;exitX=1;exitY=0.5;exitDx=0;exitDy=0;entryX=0;entryY=0.5;entryDx=0;entryDy=0;" edge="1" parent="1" source="DB2N2tVpHqEbX4s-BZQU-7" target="DB2N2tVpHqEbX4s-BZQU-15">
          <mxGeometry relative="1" as="geometry" />
        </mxCell>
        <mxCell id="DB2N2tVpHqEbX4s-BZQU-7" value="&lt;b&gt;甲&lt;/b&gt;" style="text;html=1;align=center;verticalAlign=middle;whiteSpace=wrap;rounded=0;strokeColor=default;" vertex="1" parent="1">
          <mxGeometry x="320" y="258" width="40" height="40" as="geometry" />
        </mxCell>
        <mxCell id="DB2N2tVpHqEbX4s-BZQU-23" style="rounded=0;orthogonalLoop=1;jettySize=auto;html=1;exitX=1;exitY=0.5;exitDx=0;exitDy=0;entryX=0;entryY=0.5;entryDx=0;entryDy=0;" edge="1" parent="1" source="DB2N2tVpHqEbX4s-BZQU-8" target="DB2N2tVpHqEbX4s-BZQU-4">
          <mxGeometry relative="1" as="geometry" />
        </mxCell>
        <mxCell id="DB2N2tVpHqEbX4s-BZQU-24" style="rounded=0;orthogonalLoop=1;jettySize=auto;html=1;exitX=1;exitY=0.5;exitDx=0;exitDy=0;entryX=0;entryY=0.5;entryDx=0;entryDy=0;" edge="1" parent="1" source="DB2N2tVpHqEbX4s-BZQU-8" target="DB2N2tVpHqEbX4s-BZQU-13">
          <mxGeometry relative="1" as="geometry" />
        </mxCell>
        <mxCell id="DB2N2tVpHqEbX4s-BZQU-25" style="edgeStyle=orthogonalEdgeStyle;rounded=0;orthogonalLoop=1;jettySize=auto;html=1;exitX=1;exitY=0.5;exitDx=0;exitDy=0;entryX=0;entryY=0.5;entryDx=0;entryDy=0;" edge="1" parent="1" source="DB2N2tVpHqEbX4s-BZQU-8" target="DB2N2tVpHqEbX4s-BZQU-15">
          <mxGeometry relative="1" as="geometry" />
        </mxCell>
        <mxCell id="DB2N2tVpHqEbX4s-BZQU-8" value="介" style="text;html=1;align=center;verticalAlign=middle;whiteSpace=wrap;rounded=0;strokeColor=default;" vertex="1" parent="1">
          <mxGeometry x="320" y="319" width="40" height="40" as="geometry" />
        </mxCell>
        <mxCell id="DB2N2tVpHqEbX4s-BZQU-26" style="rounded=0;orthogonalLoop=1;jettySize=auto;html=1;exitX=1;exitY=0.5;exitDx=0;exitDy=0;entryX=0;entryY=0.5;entryDx=0;entryDy=0;" edge="1" parent="1" source="DB2N2tVpHqEbX4s-BZQU-10" target="DB2N2tVpHqEbX4s-BZQU-4">
          <mxGeometry relative="1" as="geometry" />
        </mxCell>
        <mxCell id="DB2N2tVpHqEbX4s-BZQU-27" style="rounded=0;orthogonalLoop=1;jettySize=auto;html=1;exitX=1;exitY=0.5;exitDx=0;exitDy=0;entryX=0;entryY=0.5;entryDx=0;entryDy=0;" edge="1" parent="1" source="DB2N2tVpHqEbX4s-BZQU-10" target="DB2N2tVpHqEbX4s-BZQU-13">
          <mxGeometry relative="1" as="geometry" />
        </mxCell>
        <mxCell id="DB2N2tVpHqEbX4s-BZQU-28" style="rounded=0;orthogonalLoop=1;jettySize=auto;html=1;exitX=1;exitY=0.5;exitDx=0;exitDy=0;entryX=0;entryY=0.5;entryDx=0;entryDy=0;" edge="1" parent="1" source="DB2N2tVpHqEbX4s-BZQU-10" target="DB2N2tVpHqEbX4s-BZQU-15">
          <mxGeometry relative="1" as="geometry" />
        </mxCell>
        <mxCell id="DB2N2tVpHqEbX4s-BZQU-10" value="......" style="text;html=1;align=center;verticalAlign=middle;whiteSpace=wrap;rounded=0;strokeColor=default;" vertex="1" parent="1">
          <mxGeometry x="320" y="378" width="40" height="40" as="geometry" />
        </mxCell>
        <mxCell id="DB2N2tVpHqEbX4s-BZQU-32" style="rounded=0;orthogonalLoop=1;jettySize=auto;html=1;exitX=1;exitY=0.5;exitDx=0;exitDy=0;entryX=0;entryY=0.5;entryDx=0;entryDy=0;" edge="1" parent="1" source="DB2N2tVpHqEbX4s-BZQU-13" target="DB2N2tVpHqEbX4s-BZQU-5">
          <mxGeometry relative="1" as="geometry" />
        </mxCell>
        <mxCell id="DB2N2tVpHqEbX4s-BZQU-33" style="rounded=0;orthogonalLoop=1;jettySize=auto;html=1;exitX=1;exitY=0.5;exitDx=0;exitDy=0;entryX=0;entryY=0.5;entryDx=0;entryDy=0;" edge="1" parent="1" source="DB2N2tVpHqEbX4s-BZQU-13" target="DB2N2tVpHqEbX4s-BZQU-14">
          <mxGeometry relative="1" as="geometry" />
        </mxCell>
        <mxCell id="DB2N2tVpHqEbX4s-BZQU-34" style="rounded=0;orthogonalLoop=1;jettySize=auto;html=1;exitX=1;exitY=0.5;exitDx=0;exitDy=0;entryX=0;entryY=0.5;entryDx=0;entryDy=0;" edge="1" parent="1" source="DB2N2tVpHqEbX4s-BZQU-13" target="DB2N2tVpHqEbX4s-BZQU-16">
          <mxGeometry relative="1" as="geometry" />
        </mxCell>
        <mxCell id="DB2N2tVpHqEbX4s-BZQU-13" value="霜" style="text;html=1;align=center;verticalAlign=middle;whiteSpace=wrap;rounded=0;strokeColor=default;" vertex="1" parent="1">
          <mxGeometry x="419" y="259" width="40" height="40" as="geometry" />
        </mxCell>
        <mxCell id="DB2N2tVpHqEbX4s-BZQU-14" value="&lt;b&gt;胍&lt;/b&gt;" style="text;html=1;align=center;verticalAlign=middle;whiteSpace=wrap;rounded=0;strokeColor=default;" vertex="1" parent="1">
          <mxGeometry x="519" y="260" width="40" height="40" as="geometry" />
        </mxCell>
        <mxCell id="DB2N2tVpHqEbX4s-BZQU-35" style="rounded=0;orthogonalLoop=1;jettySize=auto;html=1;exitX=1;exitY=0.5;exitDx=0;exitDy=0;entryX=0;entryY=0.5;entryDx=0;entryDy=0;" edge="1" parent="1" source="DB2N2tVpHqEbX4s-BZQU-15" target="DB2N2tVpHqEbX4s-BZQU-5">
          <mxGeometry relative="1" as="geometry" />
        </mxCell>
        <mxCell id="DB2N2tVpHqEbX4s-BZQU-36" style="rounded=0;orthogonalLoop=1;jettySize=auto;html=1;exitX=1;exitY=0.5;exitDx=0;exitDy=0;entryX=0;entryY=0.5;entryDx=0;entryDy=0;" edge="1" parent="1" source="DB2N2tVpHqEbX4s-BZQU-15" target="DB2N2tVpHqEbX4s-BZQU-14">
          <mxGeometry relative="1" as="geometry" />
        </mxCell>
        <mxCell id="DB2N2tVpHqEbX4s-BZQU-37" style="edgeStyle=orthogonalEdgeStyle;rounded=0;orthogonalLoop=1;jettySize=auto;html=1;exitX=1;exitY=0.5;exitDx=0;exitDy=0;entryX=0;entryY=0.5;entryDx=0;entryDy=0;" edge="1" parent="1" source="DB2N2tVpHqEbX4s-BZQU-15" target="DB2N2tVpHqEbX4s-BZQU-16">
          <mxGeometry relative="1" as="geometry" />
        </mxCell>
        <mxCell id="DB2N2tVpHqEbX4s-BZQU-15" value="......" style="text;html=1;align=center;verticalAlign=middle;whiteSpace=wrap;rounded=0;strokeColor=default;" vertex="1" parent="1">
          <mxGeometry x="419" y="319" width="40" height="40" as="geometry" />
        </mxCell>
        <mxCell id="DB2N2tVpHqEbX4s-BZQU-16" value="......" style="text;html=1;align=center;verticalAlign=middle;whiteSpace=wrap;rounded=0;strokeColor=default;" vertex="1" parent="1">
          <mxGeometry x="519" y="319" width="40" height="40" as="geometry" />
        </mxCell>
      </root>
    </mxGraphModel>
  </diagram>
</mxfile>
